<svg width="72" height="72" fill="none" xmlns="http://www.w3.org/2000/svg"><g clip-path="url('#clip0_2_4')" fill="#000"><path d="m68.823 26.111-2.224-.317-2.74-.239-.755-1.866 1.787-2.104 1.31-1.788c.49-.666.716-1.39.716-2.224 0-.119 0-.198-.04-.318-.04-.953-.435-1.706-1.072-2.342l-8.697-8.698c-.637-.636-1.387-1.111-2.344-1.111h-.357c-.834 0-1.562.22-2.184.675l-1.787 1.31-2.105 1.787-1.907-.715-.238-2.78-.317-2.183C45.615 1.458 43.922.02 42.136.02H29.864c-1.787 0-3.519 1.437-3.772 3.178l-.318 2.184-.239 2.78-1.866.714-2.105-1.786-1.787-1.311a3.504 3.504 0 0 0-2.105-.675h-.358c-.955 0-1.747.436-2.422 1.111l-8.696 8.698c-.596.595-.954 1.39-1.033 2.342-.04.16-.04.318-.04.438 0 .754.18 1.482.635 2.104l1.31 1.788 1.867 2.104c-.277.516-.516 1.113-.794 1.866l-2.78.239-2.184.317C1.476 26.36 0 28.097 0 29.884v12.272c0 1.787 1.465 3.484 3.177 3.733l2.184.317 2.78.238c.318.834.596 1.47.795 1.907l-1.867 2.104-1.31 1.788c-.438.595-.636 1.27-.636 2.025 0 .12 0 .277.04.437.08.953.396 1.786 1.033 2.422l8.696 8.698c.656.655 1.467 1.071 2.423 1.071h.357c.795 0 1.51-.238 2.105-.674l1.787-1.31 2.105-1.867c.715.356 1.35.635 1.866.834l.24 2.74.317 2.223c.243 1.703 1.985 3.138 3.773 3.138h12.27c1.788 0 3.49-1.436 3.734-3.138l.317-2.224.238-2.74c.636-.237 1.271-.515 1.907-.833l2.105 1.866 1.787 1.311c.622.456 1.35.635 2.144.635h.398c.956 0 1.746-.437 2.343-1.032l8.697-8.698c.675-.675 1.032-1.469 1.072-2.422.04-.12.04-.198.04-.318 0-.834-.264-1.529-.715-2.144l-1.31-1.788-1.788-2.104.754-1.907 2.741-.238 2.224-.317c1.741-.25 3.177-1.946 3.177-3.733V29.884c0-1.787-1.436-3.524-3.177-3.773Zm-.755 15.965-2.026.318-.992.08-4.13.317c-.16.834-.43 1.614-.715 2.303-.037.12-.229.64-.675 1.628-.11.243-.437.953-1.033 2.106l2.581 3.177.636.714 1.23 1.708-8.537 8.538-1.629-1.23-.794-.636-3.177-2.701c-.794.517-1.507.878-2.104 1.152-.356.163-1.43.556-1.629.675l-2.303.715-.318 4.05-.08 1.073-.317 2.025H29.944l-.318-2.025-.12-1.073-.317-4.05-2.264-.715-1.628-.675c-.608-.252-1.31-.635-2.104-1.152l-3.178 2.7-.754.636-1.707 1.231-8.539-8.538 1.231-1.708.636-.714 2.7-3.177c-.516-.795-.913-1.493-1.152-2.106l-.635-1.628-.715-2.303-4.09-.317-1.033-.08-2.065-.318V29.963l2.065-.357 1.033-.079 4.09-.318.715-2.263.635-1.629c.24-.612.636-1.31 1.152-2.104l-2.7-3.177-.636-.835-1.23-1.628 8.537-8.538 1.708 1.232.755.635 3.177 2.62.873-.476c.515-.28.955-.472 1.231-.595a15.918 15.918 0 0 1 1.628-.636c.729-.284 1.47-.556 2.264-.714l.318-4.17.12-.954.317-2.064h12.112l.318 2.064.08.953.317 4.17c.834.159 1.608.444 2.304.716a10.69 10.69 0 0 1 1.628.635l1.191.595.913.477 3.178-2.62.793-.636 1.629-1.232 8.538 8.538-1.231 1.628-.635.835-2.582 3.177c.596 1.151.918 1.864 1.033 2.104.322.673.539 1.197.675 1.629.3.723.556 1.469.715 2.263l4.13.318.993.079 2.025.357v12.113Z"/><path d="M36.02 23.69c-3.416 0-6.305 1.2-8.697 3.613-2.373 2.393-3.575 5.282-3.575 8.657 0 3.415 1.192 6.315 3.575 8.698 2.382 2.382 5.281 3.573 8.697 3.573 3.376 0 6.274-1.19 8.697-3.573 2.422-2.383 3.614-5.283 3.614-8.698 0-3.375-1.192-6.235-3.614-8.657-2.423-2.423-5.321-3.614-8.697-3.614Zm5.877 18.267c-1.628 1.628-3.614 2.463-5.877 2.463-2.343 0-4.349-.815-5.997-2.463-1.648-1.648-2.462-3.654-2.462-5.997 0-2.264.834-4.249 2.462-5.877 1.668-1.668 3.654-2.502 5.997-2.502 2.263 0 4.229.853 5.877 2.502 1.648 1.648 2.502 3.613 2.502 5.877 0 2.343-.834 4.33-2.502 5.997Z"/></g><defs><clipPath id="clip0_2_4"><path fill="#fff" d="M0 0h72v72H0z"/></clipPath></defs></svg>