<svg width="72" height="72" viewBox="0 0 72 72" fill="none" xmlns="http://www.w3.org/2000/svg">
<g clip-path="url('#clip0_2_4')">
<path d="M68.8229 26.1113L66.5991 25.7935L63.8582 25.5555L63.1042 23.6891L64.8911 21.5846L66.2018 19.7969C66.6906 19.1311 66.9168 18.4075 66.9168 17.5731C66.9168 17.4545 66.9168 17.3748 66.8769 17.2553C66.8372 16.3021 66.4415 15.5491 65.8045 14.9127L57.1076 6.21518C56.4706 5.57895 55.7208 5.10365 54.7644 5.10365H54.4068C53.5731 5.10365 52.8446 5.32307 52.2227 5.77895L50.4359 7.08954L48.3305 8.87636L46.4242 8.1613L46.1862 5.38165L45.8686 3.19754C45.6153 1.4573 43.9225 0.0204773 42.1358 0.0204773H29.8645C28.0768 0.0204773 26.3452 1.4573 26.0919 3.19754L25.7741 5.38165L25.5352 8.1613L23.6687 8.87636L21.5642 7.08954L19.7774 5.77895C19.1819 5.34177 18.4667 5.10365 17.672 5.10365H17.3145C16.3587 5.10365 15.5674 5.54001 14.8922 6.21518L6.19553 14.9127C5.6 15.5082 5.24235 16.3021 5.16282 17.2553C5.12294 17.4146 5.12294 17.5731 5.12294 17.6925C5.12294 18.4474 5.30259 19.1752 5.75835 19.7969L7.06894 21.5846L8.93541 23.6891C8.65753 24.2051 8.41941 24.8015 8.14071 25.5555L5.36106 25.7935L3.17694 26.1113C1.47588 26.3587 0 28.0972 0 29.884V42.156C0 43.9428 1.46482 45.6398 3.17706 45.8888L5.36118 46.2065L8.14082 46.4445C8.45859 47.2781 8.73729 47.9135 8.93553 48.3507L7.06906 50.4552L5.75847 52.2428C5.32129 52.8384 5.12306 53.5136 5.12306 54.2676C5.12306 54.3872 5.12306 54.5455 5.16294 54.7048C5.24259 55.658 5.55859 56.4908 6.19565 57.1271L14.8924 65.8247C15.5481 66.4804 16.3588 66.8964 17.3146 66.8964H17.6721C18.4668 66.8964 19.1819 66.6584 19.7775 66.222L21.5644 64.9113L23.6688 63.0449C24.3839 63.4015 25.0193 63.6804 25.5353 63.8786L25.7742 66.6185L26.092 68.8424C26.3351 70.5445 28.0771 71.9797 29.8646 71.9797H42.1358C43.9226 71.9797 45.6254 70.5445 45.8686 68.8424L46.1862 66.6185L46.4242 63.8786C47.0596 63.6406 47.6951 63.3626 48.3305 63.0449L50.4359 64.9113L52.2227 66.222C52.8446 66.6778 53.5732 66.8574 54.3671 66.8574H54.7645C55.7209 66.8574 56.5114 66.4202 57.1078 65.8247L65.8046 57.1271C66.4798 56.4519 66.8373 55.658 66.8771 54.7048C66.9169 54.5854 66.9169 54.5066 66.9169 54.3872C66.9169 53.5535 66.6526 52.858 66.2019 52.2428L64.8912 50.4552L63.1044 48.3507L63.8584 46.4445L66.5992 46.2065L68.8231 45.8888C70.564 45.6398 72 43.9427 72 42.1559V29.884C72 28.0972 70.564 26.3604 68.8229 26.1113ZM68.068 42.0762L66.0424 42.3939L65.0502 42.4735L60.92 42.7913C60.7607 43.6249 60.4906 44.4052 60.2051 45.094C60.1678 45.2142 59.9764 45.7337 59.5298 46.7224C59.4205 46.9654 59.0926 47.6755 58.4971 48.8278L61.0785 52.0048L61.7139 52.7189L62.9449 54.4271L54.4067 62.9653L52.7782 61.7342L51.9845 61.0988L48.8074 58.3979C48.0127 58.9148 47.3001 59.2757 46.7028 59.5501C46.3471 59.7128 45.2727 60.106 45.0745 60.2253L42.7708 60.9395L42.4532 64.9901L42.3735 66.0627L42.0559 68.0883H29.9441L29.6264 66.0627L29.5068 64.9901L29.1892 60.9395L26.9254 60.2253L25.2971 59.5501C24.6895 59.2976 23.9864 58.9148 23.1926 58.3979L20.0155 61.0988L19.2607 61.7342L17.5535 62.9653L9.01518 54.4271L10.2462 52.7189L10.8816 52.0048L13.5818 48.8278C13.0658 48.0331 12.6693 47.3349 12.4304 46.7224L11.7949 45.094L11.0799 42.7913L6.98953 42.4735L5.95682 42.3939L3.89212 42.0762V29.9635L5.95682 29.606L6.98953 29.5272L11.0799 29.2095L11.7949 26.9458L12.4304 25.3174C12.6693 24.7048 13.0658 24.0067 13.5818 23.2129L10.8816 20.0359L10.2462 19.2014L9.01518 17.5731L17.5535 9.03483L19.2607 10.2667L20.0155 10.9021L23.1926 13.5226L24.066 13.0465C24.5811 12.7652 25.0208 12.5738 25.2971 12.4509C26.0934 12.0968 26.65 11.9019 26.9254 11.8155C27.654 11.5308 28.3945 11.2589 29.1892 11.1005L29.5068 6.93048L29.6264 5.9773L29.9441 3.91259H42.056L42.3736 5.9773L42.4533 6.93048L42.7709 11.1005C43.6047 11.2589 44.3791 11.5437 45.0746 11.8155C45.6269 11.9867 46.1786 12.1882 46.7029 12.4509L47.8941 13.0465L48.8075 13.5226L51.9846 10.9021L52.7784 10.2667L54.4068 9.03483L62.9451 17.5731L61.714 19.2014L61.0786 20.0359L58.4972 23.2129C59.0927 24.3644 59.4147 25.0768 59.5299 25.3174C59.8519 25.9901 60.0687 26.5137 60.2052 26.9458C60.5042 27.6685 60.7609 28.4148 60.9201 29.2095L65.0504 29.5272L66.0425 29.606L68.0681 29.9635V42.0762H68.068Z" fill="black"></path>
<path d="M36.0195 23.6891C32.6044 23.6891 29.7153 24.8905 27.3228 27.3033C24.9498 29.6958 23.7485 32.5848 23.7485 35.9601C23.7485 39.3753 24.9397 42.2745 27.3228 44.6578C29.7052 47.0401 32.6044 48.2313 36.0195 48.2313C39.3956 48.2313 42.294 47.0401 44.7171 44.6578C47.1393 42.2745 48.3305 39.3754 48.3305 35.9601C48.3305 32.5848 47.1393 29.7255 44.7171 27.3033C42.294 24.8802 39.3956 23.6891 36.0195 23.6891ZM41.8975 41.9568C40.2692 43.5852 38.2832 44.4198 36.0195 44.4198C33.6769 44.4198 31.6715 43.6055 30.0228 41.9568C28.3751 40.3089 27.5608 38.3035 27.5608 35.9601C27.5608 33.6964 28.3945 31.7114 30.0228 30.0829C31.6911 28.4148 33.6769 27.5811 36.0195 27.5811C38.2832 27.5811 40.2488 28.4342 41.8975 30.0829C43.5453 31.7308 44.3994 33.6964 44.3994 35.9601C44.3994 38.3035 43.5648 40.2895 41.8975 41.9568Z" fill="black"></path>
</g>
<defs>
<clipPath id="clip0_2_4">
<rect width="72" height="72" fill="white"></rect>
</clipPath>
</defs>
</svg>
